<?xml version="1.0" encoding="UTF-8" standalone="no"?>
<svg viewBox="0 0 500 500" version="1.1" xmlns="http://www.w3.org/2000/svg">
    <rect
            width="500"
            height="500"
            x="0"
            y="0"
            rx="10"
            ry="10"
            style="fill:none;stroke:#ffffff;stroke-width:1;stroke-opacity:1" />
    <text
            x="8"
            y="20"
            data-eval="me.text(neuron.name);"
            style="stroke:none;fill-opacity:1;fill:#ffffff;opacity:1;">name</text>
    <g data-child="valve1" transform="translate(400,30) scale(0.2)" />

    <g style="fill:#159E97;" transform="translate(100,100) scale(2,2)">
        <path d="M53,40.1c0-9.9,0-19.6,0-29.4c-12.7,0-25.2,0-37.9,0c0,9.9,0,19.6,0,29.4C27.8,40.1,40.4,40.1,53,40.1z"/>
        <path d="M19.9,50.7c4.4,5.4,8.4,10.6,12.7,15.8c-0.1,0.1-0.2,0.3-0.3,0.4h4.2c-0.2-0.2-0.3-0.4-0.5-0.6
		c4-5.1,8.1-10.2,12.4-15.5c0.5,5.4,1,10.8,1.6,16.1h2.9c-0.6-6.6-1.3-13.3-1.9-19.9c0-0.3,0.2-0.8,0.5-1c0.7-0.4,1.6-0.8,2.7-1.5
		c-13.5,0-26.4,0-39.5,0c0.7,0.6,1.6,0.9,2.3,1.5c0.3,0.2,0.6,0.8,0.6,1.1c-0.5,5.9-1.1,12-1.8,18.1c-0.1,0.6-0.1,1.2-0.2,1.7h2.9
		C18.8,61.5,19.4,56.2,19.9,50.7z M47.2,47.9c-4.4,5.4-8.5,10.8-13,16.3c-4.5-5.5-8.6-10.9-13.2-16.5C29.9,50.3,38.5,50.2,47.2,47.9
		z"/>
        <path d="M14.1,6.3c13.4,0,26.6,0,40.1,0C45.6-0.6,21.7-0.6,14.1,6.3z"/>
        <path d="M13.5,10.1c13.7,0,27.4,0,41.3,0c0-0.4,0-0.6,0.1-0.9c0-2.2,0-2.2-2.2-2.2C40.3,7,28.1,7,15.9,7
		c-3,0-2.8-0.6-2.7,2.9C13.3,9.9,13.4,10,13.5,10.1z"/>
        <path d="M15.8,43.9c4.3,0,8.4,0,12.7,0c8.2,0,16.3,0,24.5,0c1.8,0,1.9-0.2,1.9-1.9c0-0.3,0-0.6,0-1
		c-13.9,0-27.6,0-41.5,0C13.1,43.9,13.1,43.9,15.8,43.9z"/>

        <g transform="translate(31,12) scale(0.8,0.25)">
            <rect
                    width="10"
                    height="100"
                    x="0"
                    y="0"
                    style="fill:grey;stroke:#ffffff" />
            <rect
                    width="10"
                    height="20"
                    x="0"
                    y="0"
                    style="fill:blue;stroke:#ffffff"
                    data-eval="me.attr('height', Math.max(Math.min(hmi.getNeuron(neuron, 'level').value, 100), 0))"
                    transform="translate(0,100) scale(1,-1)"/>
        </g>

    </g>
</svg>
